<?xml version="1.0" standalone="no"?>
<!DOCTYPE svg PUBLIC "-//W3C//DTD SVG 20010904//EN"
 "http://www.w3.org/TR/2001/REC-SVG-20010904/DTD/svg10.dtd">
<svg version="1.0" xmlns="http://www.w3.org/2000/svg"
 width="4863.000000pt" height="2106.000000pt" viewBox="0 0 4863.000000 2106.000000"
 preserveAspectRatio="xMidYMid meet">

<g transform="translate(0.000000,2106.000000) scale(0.100000,-0.100000)"
fill="#000000" stroke="none">
<path d="M8469 20850 c-489 -17 -995 -73 -1439 -161 -1236 -243 -2361 -738
-3290 -1447 -280 -214 -469 -381 -794 -702 -936 -925 -1499 -1737 -1881 -2715
-271 -692 -420 -1372 -487 -2225 -18 -227 -18 -1620 0 -1845 41 -526 101 -912
203 -1326 260 -1056 711 -1936 1450 -2824 264 -318 638 -725 887 -966 808
-783 1719 -1331 2817 -1695 743 -246 1472 -383 2320 -434 347 -21 1186 -11
1640 20 1459 101 2872 443 4015 975 181 84 328 160 580 300 91 51 219 120 285
155 66 35 361 225 656 421 l536 358 129 163 c71 90 169 208 219 263 50 55 108
129 129 165 21 36 52 83 70 104 59 75 613 1001 603 1008 -6 4 45 92 124 214
74 114 136 212 138 218 13 36 415 609 709 1011 404 551 600 794 806 1001 273
272 439 347 542 246 55 -55 85 -162 149 -537 119 -699 167 -826 369 -969 85
-61 192 -113 284 -138 101 -28 324 -30 457 -4 221 42 454 142 719 309 76 48
142 87 146 87 4 0 -10 -57 -32 -127 -82 -270 -144 -565 -168 -802 -15 -149
-12 -487 5 -612 35 -266 128 -523 252 -697 171 -241 459 -408 776 -451 110
-15 313 -13 436 4 219 31 507 118 780 234 751 322 1637 970 2509 1836 149 149
272 267 272 263 0 -5 -13 -102 -30 -216 -44 -308 -100 -820 -100 -914 0 -162
42 -269 141 -363 144 -137 311 -148 455 -29 37 29 60 69 148 242 134 267 202
426 374 872 336 873 426 1088 603 1446 151 306 261 475 405 622 117 121 102
120 164 11 44 -78 135 -177 205 -223 147 -98 384 -141 638 -117 66 6 131 18
146 26 78 40 128 157 99 233 -19 52 -61 72 -168 82 -197 18 -218 47 -321 434
-82 304 -124 387 -216 422 -87 34 -256 -2 -373 -78 -206 -134 -513 -553 -814
-1113 -48 -88 -166 -321 -263 -517 -97 -197 -178 -356 -180 -354 -2 2 16 95
40 207 25 112 61 281 81 376 62 296 134 494 331 918 220 474 258 565 302 735
34 129 42 288 19 358 -33 99 -128 146 -292 146 -88 0 -96 -2 -176 -41 -333
-165 -656 -752 -887 -1611 -40 -148 -123 -493 -137 -566 -15 -85 -468 -610
-884 -1026 -624 -623 -1158 -1018 -1805 -1335 -492 -241 -981 -381 -1256 -361
-282 21 -426 132 -505 391 -27 86 -28 99 -28 305 -1 192 2 232 28 375 15 88
32 167 36 175 6 11 35 21 82 30 276 48 660 167 853 263 491 244 935 866 1034
1447 104 606 -60 1101 -427 1293 -107 55 -192 77 -304 77 -115 0 -219 -28
-353 -95 -262 -132 -494 -346 -730 -675 -173 -241 -293 -441 -440 -734 l-100
-200 -90 -73 c-397 -323 -794 -513 -1072 -513 -106 0 -147 37 -212 189 -62
145 -96 311 -135 646 -50 428 -72 561 -122 731 -99 343 -302 534 -568 534
-239 0 -514 -142 -871 -449 -363 -311 -907 -958 -1161 -1379 -19 -31 -34 -54
-34 -50 0 8 434 1177 808 2178 351 939 713 1896 1074 2840 165 432 410 1075
544 1430 308 813 379 994 471 1205 105 238 260 547 388 770 208 363 247 474
249 710 1 171 -18 275 -74 391 -74 154 -195 251 -325 262 -56 4 -71 1 -127
-25 -85 -41 -138 -90 -172 -158 -35 -71 -139 -343 -252 -655 -47 -129 -103
-282 -125 -340 -22 -58 -132 -359 -243 -670 -1185 -3294 -2089 -5655 -2876
-7515 -143 -338 -149 -353 -157 -445 l-9 -95 -503 -1172 -502 -1171 -136 -113
-136 -113 -611 -317 c-563 -292 -670 -343 -1361 -652 l-750 -335 -910 -342
c-500 -188 -998 -376 -1105 -417 -649 -251 -1151 -372 -1678 -403 -205 -12
-632 0 -912 25 -1156 106 -2153 471 -2990 1095 -318 238 -595 497 -785 735
-791 994 -1370 2965 -1496 5090 -17 277 -17 1323 0 1600 77 1308 333 2608 713
3620 312 831 673 1423 1113 1826 413 379 808 651 1290 889 765 378 1571 569
2570 611 611 25 1196 -33 1770 -176 1018 -253 1991 -820 2856 -1663 399 -389
821 -930 1128 -1446 l69 -117 30 43 c16 24 282 427 591 897 l561 853 -66 61
c-547 501 -1288 912 -2275 1262 -1372 486 -3210 765 -4700 715z m15118 -9440
c69 -42 111 -190 99 -349 -14 -179 -55 -321 -150 -516 -93 -189 -153 -274
-280 -401 -220 -219 -437 -329 -692 -350 -80 -7 -80 -6 -98 21 -43 65 -38 85
85 342 304 637 455 891 644 1078 172 172 303 230 392 175z"/>
<path d="M31170 12729 c-81 -16 -165 -66 -255 -151 -309 -292 -558 -830 -765
-1653 -185 -732 -298 -1359 -385 -2120 -55 -474 -46 -580 58 -720 49 -67 138
-129 216 -152 46 -13 67 -14 118 -5 70 11 171 67 202 110 37 52 229 439 293
592 36 85 141 350 233 589 312 810 398 1015 581 1381 119 239 232 418 336 536
65 74 156 160 161 153 2 -2 23 -38 47 -79 26 -46 74 -106 124 -155 121 -120
238 -171 453 -196 94 -11 296 -4 376 13 91 19 147 95 146 198 0 90 -35 117
-166 129 -104 9 -171 37 -207 85 -28 36 -79 191 -130 387 -19 75 -49 171 -66
212 -63 153 -100 182 -225 182 -211 0 -388 -123 -612 -422 -249 -332 -441
-663 -745 -1282 -98 -200 -181 -362 -183 -359 -3 3 8 68 25 144 17 77 51 236
76 354 85 410 140 559 454 1225 167 354 239 603 228 778 -9 132 -64 194 -196
223 -74 15 -125 16 -192 3z"/>
<path d="M34430 12619 c-179 -48 -295 -150 -462 -404 -406 -617 -775 -1385
-924 -1925 -155 -560 -146 -821 37 -1091 76 -112 222 -217 359 -259 141 -43
359 -45 556 -5 204 42 545 190 792 345 106 66 151 100 784 581 371 282 480
359 557 399 l44 22 -6 -79 c-9 -110 -62 -363 -161 -753 -75 -298 -152 -630
-232 -995 -72 -328 -184 -558 -399 -813 -48 -57 -220 -239 -383 -405 -992
-1011 -1486 -1645 -1962 -2517 -535 -979 -840 -2043 -840 -2930 0 -811 206
-1283 634 -1454 175 -70 396 -75 573 -12 135 48 314 161 432 272 395 372 803
1168 1148 2239 174 541 496 1682 623 2210 120 495 192 782 224 897 34 120 117
459 286 1168 132 553 178 685 299 846 168 226 649 723 1086 1124 99 90 221
203 270 250 50 47 154 141 230 210 674 601 1133 1059 1273 1270 50 76 56 147
17 225 -65 133 -181 149 -332 43 -164 -115 -582 -496 -1283 -1173 -710 -684
-895 -851 -1001 -905 -53 -28 -58 -26 -53 23 26 243 229 895 431 1386 380 925
450 1163 410 1394 -46 265 -216 369 -434 268 -90 -43 -218 -171 -308 -311 -38
-58 -106 -163 -153 -235 -390 -598 -871 -1125 -1377 -1507 -239 -180 -523
-358 -750 -468 -346 -169 -528 -188 -642 -68 -118 125 -91 399 82 827 95 235
219 510 349 770 137 273 206 397 386 696 168 277 252 442 270 522 51 246 -162
399 -450 322z m885 -5871 c-31 -198 -88 -428 -154 -618 -116 -337 -308 -991
-515 -1751 -265 -976 -444 -1563 -602 -1974 -288 -748 -417 -1029 -595 -1290
-77 -114 -178 -228 -237 -269 -141 -97 -234 -56 -332 149 -98 206 -167 449
-191 670 -20 192 1 536 51 815 86 478 241 888 566 1497 496 930 1123 1869
1632 2443 92 103 362 370 375 370 5 0 6 -18 2 -42z"/>
<path d="M26255 6400 c-412 -30 -748 -181 -1022 -461 -256 -262 -383 -485
-438 -772 -39 -201 -39 -553 0 -742 133 -642 662 -1128 1340 -1231 132 -20
382 -19 517 1 602 89 1105 497 1289 1045 66 199 74 257 73 560 0 299 -10 372
-70 548 -99 289 -352 612 -620 792 -157 106 -357 188 -560 229 -86 18 -348 44
-394 39 -8 0 -60 -4 -115 -8z m305 -85 c228 -19 446 -111 628 -265 129 -111
223 -276 291 -515 72 -252 101 -463 101 -742 0 -447 -103 -880 -268 -1119
-185 -270 -563 -429 -977 -410 -311 14 -546 101 -739 273 -214 191 -350 575
-387 1088 -30 437 68 957 236 1244 144 245 468 422 825 450 103 8 139 8 290
-4z"/>
<path d="M41449 6399 c-217 -15 -418 -68 -604 -159 -147 -72 -262 -153 -379
-268 -265 -259 -403 -489 -465 -775 -46 -214 -49 -561 -6 -772 130 -640 662
-1128 1340 -1231 132 -20 382 -19 517 1 669 99 1183 565 1334 1210 28 116 29
129 28 390 0 241 -2 281 -22 371 -61 280 -170 487 -380 717 -242 267 -504 417
-848 486 -86 18 -347 44 -394 39 -8 0 -63 -4 -121 -9z m386 -95 c127 -20 209
-46 316 -99 316 -156 459 -361 563 -805 51 -218 61 -316 61 -605 0 -288 -9
-384 -60 -606 -59 -258 -153 -470 -258 -585 -163 -178 -383 -287 -660 -328
-500 -75 -978 119 -1170 474 -158 292 -248 791 -218 1211 22 305 77 556 174
787 179 424 677 645 1252 556z"/>
<path d="M30590 6394 c-420 -53 -704 -203 -878 -464 -85 -127 -120 -322 -89
-489 45 -232 204 -409 504 -560 116 -58 188 -85 529 -201 164 -57 349 -124
409 -150 290 -124 475 -270 553 -437 24 -52 27 -69 27 -168 -1 -85 -6 -125
-22 -175 -75 -227 -261 -376 -545 -437 -117 -25 -425 -25 -518 0 -249 67 -563
322 -787 639 l-40 57 -119 -146 c-65 -81 -125 -154 -132 -164 -11 -15 -1 -27
85 -99 361 -301 707 -420 1222 -420 645 0 1090 247 1203 668 28 104 30 318 5
412 -50 183 -173 341 -362 462 -175 113 -355 187 -904 373 -338 114 -461 164
-560 229 -145 95 -212 199 -219 341 -14 276 147 497 428 588 202 65 534 71
703 11 221 -76 480 -301 628 -544 l37 -60 115 177 116 177 -107 69 c-275 179
-425 241 -707 294 -78 14 -496 27 -575 17z"/>
<path d="M37095 6394 c-357 -42 -603 -149 -787 -343 -86 -90 -138 -174 -174
-281 -15 -43 -19 -84 -19 -195 0 -171 20 -246 95 -358 151 -226 392 -359 1025
-567 398 -130 607 -239 760 -394 125 -127 164 -232 145 -395 -17 -147 -65
-249 -169 -351 -157 -155 -410 -231 -726 -217 -182 8 -280 36 -415 120 -212
133 -405 318 -548 524 l-50 73 -131 -159 c-72 -88 -131 -163 -131 -168 1 -13
204 -174 303 -239 297 -194 640 -276 1097 -261 537 18 901 200 1066 532 56
113 76 207 76 355 -1 278 -121 483 -383 653 -178 116 -294 164 -864 359 -406
138 -542 197 -645 276 -122 94 -162 168 -168 312 -7 179 47 320 169 435 126
118 287 178 532 195 219 16 396 -9 522 -72 182 -92 423 -322 537 -513 l33 -55
112 173 c62 94 113 175 113 179 0 14 -243 163 -365 223 -246 121 -476 167
-819 164 -88 -1 -174 -4 -191 -5z"/>
<path d="M17120 4790 l0 -1570 893 0 c514 0 928 4 977 10 376 43 647 253 759
587 60 180 66 404 14 555 -102 296 -374 520 -674 554 l-62 7 61 22 c183 66
329 223 398 425 30 87 25 277 -10 393 -87 289 -268 471 -556 559 l-75 22 -862
4 -863 3 0 -1571z m1622 1464 c132 -48 223 -135 293 -279 113 -235 126 -547
29 -724 -62 -115 -177 -211 -303 -253 -65 -22 -79 -23 -638 -26 l-573 -3 0
656 0 656 568 -3 c542 -3 569 -5 624 -24z m213 -1397 c96 -34 200 -101 255
-165 155 -178 207 -513 129 -827 -54 -219 -193 -401 -377 -494 -128 -64 -125
-64 -799 -68 l-613 -4 0 796 0 796 663 -3 662 -3 80 -28z"/>
<path d="M21250 4790 l0 -1570 1030 0 1030 0 0 40 0 40 -820 0 -820 0 0 1530
0 1530 -210 0 -210 0 0 -1570z"/>
<path d="M44670 4790 l0 -1570 40 0 40 0 2 1362 3 1362 396 -699 c218 -385
562 -994 765 -1352 l369 -653 46 0 45 0 448 963 c247 529 555 1190 685 1469
l236 507 3 -1479 2 -1480 210 0 210 0 0 1570 0 1570 -218 0 -219 0 -40 -87
c-284 -624 -1188 -2552 -1193 -2546 -4 4 -342 599 -750 1321 l-743 1312 -169
0 -168 0 0 -1570z"/>
</g>
</svg>
