<?xml version="1.0" standalone="no"?>
<!DOCTYPE svg PUBLIC "-//W3C//DTD SVG 20010904//EN"
 "http://www.w3.org/TR/2001/REC-SVG-20010904/DTD/svg10.dtd">
<svg version="1.0" xmlns="http://www.w3.org/2000/svg"
 width="5614.000000pt" height="3017.000000pt" viewBox="0 0 5614.000000 3017.000000"
 preserveAspectRatio="xMidYMid meet">

<g transform="translate(0.000000,3017.000000) scale(0.100000,-0.100000)"
fill="#000000" stroke="none">
<path d="M12710 26474 c-700 -33 -1181 -93 -1720 -215 -1210 -274 -2299 -792
-3205 -1524 -478 -386 -1090 -1014 -1516 -1555 -766 -972 -1239 -2091 -1419
-3360 -69 -491 -83 -775 -77 -1650 4 -729 9 -838 52 -1215 142 -1228 578
-2353 1283 -3309 503 -684 1256 -1474 1820 -1913 1217 -947 2773 -1501 4502
-1602 537 -32 1256 -19 1900 35 1112 91 2264 348 3227 718 377 144 724 308
1133 533 140 77 298 163 350 191 52 28 329 208 615 400 l520 349 122 154 c67
85 166 202 220 261 121 131 116 124 149 189 15 30 42 72 60 94 41 51 877 1426
870 1432 -16 16 719 1049 1062 1493 319 411 598 696 766 780 123 62 222 29
273 -90 20 -48 64 -261 108 -520 34 -201 93 -487 114 -555 38 -125 114 -251
189 -313 178 -149 366 -210 607 -199 286 13 563 113 905 326 80 49 146 88 147
87 2 -1 -15 -63 -37 -137 -236 -783 -236 -1443 0 -1935 159 -330 456 -549 828
-610 124 -20 355 -20 489 0 209 32 511 123 766 232 796 338 1760 1057 2670
1989 87 89 116 114 112 95 -35 -182 -126 -973 -126 -1105 0 -164 40 -274 137
-371 28 -29 75 -65 105 -80 46 -24 66 -29 134 -29 71 0 88 4 147 33 36 18 80
47 98 65 38 39 222 401 313 617 36 85 127 315 202 510 308 801 444 1126 610
1454 154 305 255 455 403 605 l84 84 39 -68 c116 -200 239 -295 448 -348 74
-19 112 -22 281 -21 205 1 253 8 310 46 64 44 99 163 66 226 -25 49 -57 64
-158 73 -155 15 -217 61 -263 199 -13 41 -45 153 -70 248 -70 267 -119 371
-188 403 -87 39 -261 11 -383 -62 -94 -56 -227 -191 -349 -354 -257 -342 -458
-689 -766 -1323 -78 -160 -144 -290 -146 -288 -2 2 10 66 27 142 17 77 49 226
71 333 75 360 144 555 359 1016 204 437 262 582 301 755 25 115 26 280 0 335
-23 52 -79 101 -133 117 -66 19 -223 16 -285 -5 -288 -101 -589 -557 -818
-1242 -85 -253 -149 -491 -240 -886 l-26 -116 -116 -144 c-459 -570 -1062
-1172 -1544 -1541 -547 -419 -1140 -735 -1690 -901 -551 -167 -906 -102 -1044
190 -89 188 -97 499 -22 868 l22 109 65 13 c351 68 670 167 874 269 384 194
746 616 931 1084 136 344 164 800 70 1124 -137 470 -518 706 -920 571 -204
-68 -370 -179 -576 -384 -271 -271 -522 -641 -749 -1103 -96 -196 -98 -198
-300 -349 -351 -262 -641 -395 -903 -415 -71 -6 -88 -4 -122 14 -52 26 -76 54
-113 127 -67 135 -117 349 -147 625 -14 131 -25 221 -56 450 -63 454 -212 740
-440 844 -383 175 -990 -210 -1729 -1094 -145 -173 -332 -422 -433 -575 -43
-66 -81 -122 -84 -125 -2 -2 9 31 25 75 737 1989 1249 3350 1902 5060 208 545
467 1224 575 1510 366 968 492 1252 780 1755 196 342 228 438 229 690 0 142
-3 177 -22 250 -46 170 -149 317 -258 371 -69 34 -188 34 -257 0 -76 -38 -147
-108 -178 -176 -53 -118 -370 -978 -741 -2010 -1040 -2897 -2090 -5627 -2793
-7265 -94 -218 -97 -228 -105 -325 l-8 -100 -503 -1172 -504 -1172 -132 -110
-132 -111 -608 -315 c-557 -289 -671 -344 -1358 -651 l-750 -337 -965 -362
c-531 -200 -1055 -398 -1165 -440 -519 -197 -992 -314 -1440 -355 -250 -23
-747 -11 -1120 26 -1380 136 -2573 673 -3456 1554 -273 272 -469 547 -680 955
-422 815 -746 1907 -928 3135 -109 729 -141 1200 -141 2065 0 865 32 1336 141
2065 180 1211 492 2276 909 3099 218 431 442 746 733 1027 550 534 1241 957
1979 1209 688 236 1387 345 2213 347 1062 1 2007 -242 2905 -749 724 -409
1413 -993 1941 -1643 198 -243 487 -657 634 -907 33 -56 62 -102 65 -102 3 0
270 403 594 896 l590 897 -55 49 c-519 467 -1081 799 -1927 1138 -1131 453
-2615 760 -4062 839 -195 11 -842 20 -970 14z m15057 -9435 c45 -17 81 -58
104 -118 17 -46 21 -77 21 -176 -1 -204 -47 -375 -162 -601 -93 -182 -149
-263 -260 -374 -219 -219 -443 -336 -668 -347 -88 -5 -105 -3 -122 12 -26 24
-34 68 -19 112 19 59 348 725 418 848 159 279 334 493 480 589 98 64 148 78
208 55z"/>
<path d="M35361 18345 c-305 -86 -620 -555 -861 -1285 -164 -499 -380 -1493
-475 -2192 -53 -397 -97 -821 -90 -888 14 -143 66 -262 151 -339 80 -73 133
-95 229 -96 71 0 88 4 145 32 36 17 79 47 97 65 38 40 225 405 311 608 34 80
126 314 206 520 319 830 410 1048 581 1395 172 349 264 491 423 654 l93 96 32
-58 c109 -195 243 -306 422 -351 198 -51 500 -47 605 7 103 53 132 226 47 282
-15 9 -64 20 -116 25 -132 14 -198 48 -237 121 -19 38 -68 196 -99 319 -36
145 -62 224 -100 300 -52 103 -92 130 -194 130 -100 0 -229 -43 -318 -106
-177 -125 -437 -469 -693 -914 -61 -107 -206 -385 -321 -617 -115 -233 -211
-423 -213 -423 -2 0 2 24 9 53 8 28 43 192 79 363 94 446 146 597 359 1054
221 475 287 642 321 812 21 101 21 241 0 301 -19 55 -76 111 -131 127 -64 19
-202 22 -262 5z"/>
<path d="M38641 18239 c-125 -34 -244 -106 -317 -193 -154 -185 -435 -650
-648 -1076 -229 -458 -370 -823 -460 -1190 -114 -467 -99 -693 64 -944 95
-146 225 -241 397 -288 114 -31 355 -31 503 1 233 49 509 165 782 328 126 75
174 110 834 612 337 256 483 360 553 396 l34 17 -6 -70 c-11 -109 -70 -384
-161 -747 -46 -181 -95 -382 -109 -445 -15 -63 -47 -207 -72 -320 -74 -333
-76 -340 -112 -455 -66 -205 -160 -375 -310 -562 -43 -53 -227 -250 -409 -438
-652 -671 -958 -1017 -1288 -1458 -433 -579 -810 -1245 -1072 -1895 -392 -972
-539 -1991 -393 -2726 38 -189 121 -406 202 -526 141 -209 339 -330 585 -360
222 -27 459 50 701 228 325 238 673 796 986 1582 158 398 264 714 438 1311
241 826 358 1253 492 1808 51 212 112 458 135 546 116 447 168 654 255 1025
173 728 221 904 286 1031 106 210 588 723 1297 1379 133 124 295 272 360 329
623 553 1146 1074 1299 1295 59 84 36 225 -49 302 -38 34 -43 36 -98 32 -112
-8 -201 -69 -535 -367 -242 -217 -611 -565 -1069 -1010 -257 -249 -560 -532
-681 -636 -86 -75 -199 -155 -217 -155 -27 0 8 182 86 456 94 328 227 704 393
1109 334 815 397 1047 348 1278 -55 262 -220 352 -443 242 -56 -28 -97 -58
-152 -114 -76 -76 -91 -98 -304 -424 -348 -534 -756 -1002 -1181 -1355 -377
-314 -872 -618 -1177 -724 -82 -29 -106 -33 -198 -33 -97 0 -109 2 -152 28
-91 53 -123 122 -122 267 1 203 66 408 287 910 174 394 346 725 580 1115 175
292 259 448 281 524 47 161 -23 318 -163 366 -62 21 -189 18 -280 -6z m869
-5934 c-41 -219 -99 -441 -154 -589 -76 -202 -311 -1003 -511 -1741 -223 -825
-461 -1611 -564 -1865 -22 -52 -74 -187 -116 -300 -145 -385 -332 -793 -453
-987 -104 -169 -260 -345 -339 -386 -40 -21 -105 -22 -142 -2 -112 57 -254
388 -317 740 -35 197 -20 586 37 905 74 423 199 777 445 1270 448 896 1077
1875 1638 2550 111 134 481 518 490 509 2 -2 -4 -49 -14 -104z"/>
<path d="M30470 12024 c-513 -49 -859 -234 -1181 -634 -123 -152 -187 -268
-242 -435 -97 -293 -102 -728 -12 -1040 29 -101 115 -287 178 -385 425 -663
1312 -921 2065 -599 479 204 810 601 925 1107 20 87 22 125 22 377 0 305 -6
354 -66 540 -116 363 -459 750 -812 915 -252 118 -601 179 -877 154z m371
-100 c229 -38 444 -143 591 -288 88 -86 148 -185 212 -349 37 -93 100 -348
121 -487 26 -170 32 -510 11 -680 -51 -415 -164 -739 -318 -906 -59 -64 -188
-159 -277 -203 -170 -86 -351 -125 -581 -124 -294 0 -513 64 -714 208 -87 62
-194 178 -236 256 -298 552 -312 1486 -30 2064 60 123 115 193 214 273 163
131 345 209 561 241 103 15 343 12 446 -5z"/>
<path d="M45618 12019 c-297 -29 -570 -131 -798 -298 -145 -107 -369 -355
-459 -509 -79 -135 -139 -303 -168 -470 -24 -138 -24 -520 0 -649 46 -247 155
-493 299 -678 461 -589 1310 -789 2012 -473 473 213 793 609 903 1118 27 125
26 596 -1 720 -66 304 -197 538 -441 784 -66 67 -160 150 -210 185 -302 212
-716 310 -1137 270z m492 -107 c208 -49 383 -142 522 -278 76 -74 109 -122
163 -237 124 -262 195 -622 195 -987 0 -375 -75 -738 -207 -1007 -58 -117
-117 -191 -222 -275 -205 -165 -448 -242 -761 -241 -362 0 -639 106 -843 322
-130 138 -222 351 -286 656 -52 255 -69 591 -42 835 39 345 148 688 274 857
131 177 383 316 662 368 116 21 429 14 545 -13z"/>
<path d="M34780 12013 c-78 -8 -210 -35 -290 -59 -339 -102 -600 -345 -655
-609 -27 -130 -14 -303 30 -409 44 -106 142 -222 254 -305 161 -118 312 -186
731 -329 364 -124 425 -148 570 -224 140 -73 231 -139 310 -225 106 -116 141
-225 122 -377 -42 -326 -296 -525 -715 -558 -244 -19 -416 11 -568 102 -216
128 -467 371 -609 589 -15 23 -17 21 -148 -139 -155 -188 -156 -155 3 -283
143 -116 253 -184 390 -243 235 -101 397 -133 720 -141 179 -4 257 -2 351 11
432 57 731 233 869 511 59 118 76 186 82 323 16 342 -142 578 -519 776 -136
72 -259 119 -718 276 -504 172 -625 230 -733 350 -114 127 -126 335 -31 529
86 174 275 292 531 330 108 16 368 14 455 -4 233 -49 515 -272 699 -553 l47
-72 117 176 c64 97 115 178 113 179 -2 2 -59 40 -128 85 -267 175 -486 257
-775 290 -84 9 -426 12 -505 3z"/>
<path d="M41220 12006 c-341 -54 -587 -180 -752 -385 -108 -134 -148 -250
-148 -427 0 -130 12 -189 60 -290 86 -179 284 -338 569 -458 58 -24 232 -87
386 -139 338 -115 460 -162 585 -229 198 -105 332 -223 393 -347 27 -56 32
-77 35 -160 13 -326 -202 -565 -573 -637 -124 -24 -402 -24 -500 -1 -235 58
-562 317 -774 615 l-60 83 -68 -83 c-38 -46 -99 -119 -135 -164 l-67 -81 115
-94 c239 -196 404 -283 661 -350 277 -71 676 -80 968 -23 220 44 440 149 568
273 53 51 135 157 162 210 64 127 95 313 76 461 -44 347 -281 574 -802 769
-75 27 -288 102 -475 165 -411 140 -549 204 -654 302 -92 87 -121 148 -128
265 -9 170 44 317 157 430 79 78 145 117 266 158 118 39 213 51 400 51 235 0
343 -31 521 -150 110 -73 304 -271 383 -390 35 -52 65 -95 67 -95 2 0 55 79
118 175 l115 175 -106 68 c-274 177 -434 245 -690 293 -120 22 -553 29 -673
10z"/>
<path d="M21330 10410 l0 -1571 958 4 c1029 4 988 2 1142 55 379 132 598 476
577 906 -6 126 -26 199 -89 317 -118 222 -353 389 -593 422 l-81 11 61 21
c184 65 348 251 401 455 13 50 15 90 11 175 -16 321 -181 571 -461 700 -157
73 -95 69 -1058 72 l-868 4 0 -1571z m1589 1471 c139 -38 251 -134 320 -275
53 -109 79 -210 93 -366 10 -107 9 -136 -5 -204 -32 -153 -107 -272 -224 -349
-130 -86 -92 -82 -755 -85 l-588 -3 0 651 0 651 558 -4 c391 -3 570 -7 601
-16z m238 -1404 c207 -70 350 -229 399 -443 25 -108 30 -360 10 -468 -36 -191
-115 -346 -235 -459 -117 -110 -226 -159 -391 -177 -103 -10 -1098 -14 -1149
-4 l-31 7 0 789 0 789 658 -3 657 -3 82 -28z"/>
<path d="M25450 10410 l0 -1570 1041 0 1040 0 -3 43 -3 42 -822 3 -823 2 0
1525 0 1525 -215 0 -215 0 0 -1570z"/>
<path d="M48870 10410 l0 -1570 45 0 45 0 2 1361 3 1361 319 -563 c175 -310
519 -919 764 -1352 l446 -788 49 3 48 3 330 710 c181 391 488 1050 682 1465
l352 755 3 -1477 2 -1478 210 0 210 0 0 1570 0 1570 -219 0 -218 0 -111 -237
c-457 -984 -1051 -2262 -1081 -2327 l-36 -78 -498 878 c-273 484 -609 1077
-746 1319 l-249 440 -176 3 -176 2 0 -1570z"/>
</g>
</svg>
